<mxfile host="app.diagrams.net" modified="2022-02-21T07:19:16.328Z" agent="5.0 (Windows NT 10.0; Win64; x64) AppleWebKit/537.36 (KHTML, like Gecko) Chrome/98.0.4758.102 Safari/537.36" etag="2eTxUSkwRheBLztt5ZjX" version="16.2.6" type="github">
  <diagram id="C5RBs43oDa-KdzZeNtuy" name="Page-1">
    <mxGraphModel dx="1422" dy="762" grid="1" gridSize="10" guides="1" tooltips="1" connect="1" arrows="1" fold="1" page="1" pageScale="1" pageWidth="827" pageHeight="1169" math="0" shadow="0">
      <root>
        <mxCell id="WIyWlLk6GJQsqaUBKTNV-0" />
        <mxCell id="WIyWlLk6GJQsqaUBKTNV-1" parent="WIyWlLk6GJQsqaUBKTNV-0" />
        <mxCell id="l4L_RDBH0cpNp9VOybHX-0" style="edgeStyle=orthogonalEdgeStyle;rounded=0;orthogonalLoop=1;jettySize=auto;html=1;exitX=0.5;exitY=1;exitDx=0;exitDy=0;" edge="1" parent="WIyWlLk6GJQsqaUBKTNV-1" source="WIyWlLk6GJQsqaUBKTNV-3" target="WIyWlLk6GJQsqaUBKTNV-11">
          <mxGeometry relative="1" as="geometry" />
        </mxCell>
        <mxCell id="WIyWlLk6GJQsqaUBKTNV-3" value="上传zip" style="rounded=1;whiteSpace=wrap;html=1;fontSize=12;glass=0;strokeWidth=1;shadow=0;" parent="WIyWlLk6GJQsqaUBKTNV-1" vertex="1">
          <mxGeometry x="165" y="80" width="120" height="40" as="geometry" />
        </mxCell>
        <mxCell id="l4L_RDBH0cpNp9VOybHX-19" style="edgeStyle=orthogonalEdgeStyle;rounded=0;orthogonalLoop=1;jettySize=auto;html=1;exitX=0.5;exitY=1;exitDx=0;exitDy=0;entryX=0.5;entryY=0;entryDx=0;entryDy=0;" edge="1" parent="WIyWlLk6GJQsqaUBKTNV-1" source="WIyWlLk6GJQsqaUBKTNV-11" target="l4L_RDBH0cpNp9VOybHX-2">
          <mxGeometry relative="1" as="geometry" />
        </mxCell>
        <mxCell id="WIyWlLk6GJQsqaUBKTNV-11" value="解析zip中的excel" style="rounded=1;whiteSpace=wrap;html=1;fontSize=12;glass=0;strokeWidth=1;shadow=0;" parent="WIyWlLk6GJQsqaUBKTNV-1" vertex="1">
          <mxGeometry x="165" y="170" width="120" height="40" as="geometry" />
        </mxCell>
        <mxCell id="l4L_RDBH0cpNp9VOybHX-20" style="edgeStyle=orthogonalEdgeStyle;rounded=0;orthogonalLoop=1;jettySize=auto;html=1;exitX=0.5;exitY=1;exitDx=0;exitDy=0;" edge="1" parent="WIyWlLk6GJQsqaUBKTNV-1" source="l4L_RDBH0cpNp9VOybHX-2" target="l4L_RDBH0cpNp9VOybHX-5">
          <mxGeometry relative="1" as="geometry" />
        </mxCell>
        <mxCell id="l4L_RDBH0cpNp9VOybHX-2" value="对excel中的一个视图表进行处理" style="rounded=1;whiteSpace=wrap;html=1;fontSize=12;glass=0;strokeWidth=1;shadow=0;" vertex="1" parent="WIyWlLk6GJQsqaUBKTNV-1">
          <mxGeometry x="165" y="250" width="120" height="40" as="geometry" />
        </mxCell>
        <mxCell id="l4L_RDBH0cpNp9VOybHX-9" style="edgeStyle=orthogonalEdgeStyle;rounded=0;orthogonalLoop=1;jettySize=auto;html=1;exitX=0.5;exitY=1;exitDx=0;exitDy=0;" edge="1" parent="WIyWlLk6GJQsqaUBKTNV-1" source="l4L_RDBH0cpNp9VOybHX-5" target="l4L_RDBH0cpNp9VOybHX-10">
          <mxGeometry relative="1" as="geometry">
            <mxPoint x="225" y="460" as="targetPoint" />
          </mxGeometry>
        </mxCell>
        <mxCell id="l4L_RDBH0cpNp9VOybHX-5" value="解析excel中该视图表对应的sheet页。得到视图对象、sheet页中的字段数组、表单值数组" style="rounded=1;whiteSpace=wrap;html=1;fontSize=12;glass=0;strokeWidth=1;shadow=0;" vertex="1" parent="WIyWlLk6GJQsqaUBKTNV-1">
          <mxGeometry x="160" y="320" width="130" height="80" as="geometry" />
        </mxCell>
        <mxCell id="l4L_RDBH0cpNp9VOybHX-17" style="edgeStyle=orthogonalEdgeStyle;rounded=0;orthogonalLoop=1;jettySize=auto;html=1;exitX=0.5;exitY=1;exitDx=0;exitDy=0;" edge="1" parent="WIyWlLk6GJQsqaUBKTNV-1" source="l4L_RDBH0cpNp9VOybHX-7" target="l4L_RDBH0cpNp9VOybHX-16">
          <mxGeometry relative="1" as="geometry" />
        </mxCell>
        <mxCell id="l4L_RDBH0cpNp9VOybHX-7" value="以SYS_ID_作为唯一ID，结合字段数组拼接sql语句" style="rounded=1;whiteSpace=wrap;html=1;fontSize=12;glass=0;strokeWidth=1;shadow=0;" vertex="1" parent="WIyWlLk6GJQsqaUBKTNV-1">
          <mxGeometry x="60" y="590" width="120" height="50" as="geometry" />
        </mxCell>
        <mxCell id="l4L_RDBH0cpNp9VOybHX-11" style="edgeStyle=orthogonalEdgeStyle;rounded=0;orthogonalLoop=1;jettySize=auto;html=1;exitX=0;exitY=0.5;exitDx=0;exitDy=0;entryX=0.5;entryY=0;entryDx=0;entryDy=0;" edge="1" parent="WIyWlLk6GJQsqaUBKTNV-1" source="l4L_RDBH0cpNp9VOybHX-10" target="l4L_RDBH0cpNp9VOybHX-7">
          <mxGeometry relative="1" as="geometry" />
        </mxCell>
        <mxCell id="l4L_RDBH0cpNp9VOybHX-12" value="是" style="edgeLabel;html=1;align=center;verticalAlign=middle;resizable=0;points=[];" vertex="1" connectable="0" parent="l4L_RDBH0cpNp9VOybHX-11">
          <mxGeometry x="-0.0222" relative="1" as="geometry">
            <mxPoint as="offset" />
          </mxGeometry>
        </mxCell>
        <mxCell id="l4L_RDBH0cpNp9VOybHX-14" style="edgeStyle=orthogonalEdgeStyle;rounded=0;orthogonalLoop=1;jettySize=auto;html=1;exitX=1;exitY=0.5;exitDx=0;exitDy=0;" edge="1" parent="WIyWlLk6GJQsqaUBKTNV-1" source="l4L_RDBH0cpNp9VOybHX-10" target="l4L_RDBH0cpNp9VOybHX-13">
          <mxGeometry relative="1" as="geometry" />
        </mxCell>
        <mxCell id="l4L_RDBH0cpNp9VOybHX-15" value="否" style="edgeLabel;html=1;align=center;verticalAlign=middle;resizable=0;points=[];" vertex="1" connectable="0" parent="l4L_RDBH0cpNp9VOybHX-14">
          <mxGeometry x="0.0074" y="-1" relative="1" as="geometry">
            <mxPoint as="offset" />
          </mxGeometry>
        </mxCell>
        <mxCell id="l4L_RDBH0cpNp9VOybHX-10" value="该视图是否是基本视图" style="rhombus;whiteSpace=wrap;html=1;" vertex="1" parent="WIyWlLk6GJQsqaUBKTNV-1">
          <mxGeometry x="145" y="440" width="160" height="80" as="geometry" />
        </mxCell>
        <mxCell id="l4L_RDBH0cpNp9VOybHX-18" style="edgeStyle=orthogonalEdgeStyle;rounded=0;orthogonalLoop=1;jettySize=auto;html=1;exitX=0.5;exitY=1;exitDx=0;exitDy=0;entryX=0.5;entryY=0;entryDx=0;entryDy=0;" edge="1" parent="WIyWlLk6GJQsqaUBKTNV-1" source="l4L_RDBH0cpNp9VOybHX-13" target="l4L_RDBH0cpNp9VOybHX-16">
          <mxGeometry relative="1" as="geometry" />
        </mxCell>
        <mxCell id="l4L_RDBH0cpNp9VOybHX-13" value="以SYS_CUSID_作为唯一id,结合字段数组拼接sql语句" style="rounded=1;whiteSpace=wrap;html=1;fontSize=12;glass=0;strokeWidth=1;shadow=0;" vertex="1" parent="WIyWlLk6GJQsqaUBKTNV-1">
          <mxGeometry x="270" y="590" width="120" height="50" as="geometry" />
        </mxCell>
        <mxCell id="l4L_RDBH0cpNp9VOybHX-16" value="遍历表单值数组，通过执行sql语句更新数据库内容" style="rounded=1;whiteSpace=wrap;html=1;fontSize=12;glass=0;strokeWidth=1;shadow=0;" vertex="1" parent="WIyWlLk6GJQsqaUBKTNV-1">
          <mxGeometry x="165" y="690" width="125" height="50" as="geometry" />
        </mxCell>
      </root>
    </mxGraphModel>
  </diagram>
</mxfile>
